<?xml version="1.0" standalone="no"?><!DOCTYPE svg PUBLIC "-//W3C//DTD SVG 1.1//EN" "http://www.w3.org/Graphics/SVG/1.1/DTD/svg11.dtd"><svg class="icon" width="200px" height="180.12px" viewBox="0 0 1137 1024" version="1.1" xmlns="http://www.w3.org/2000/svg"><path fill="#1afa29" d="M568.433462 54.442636c24.746653 0.113778 48.639973 8.931551 67.356407 24.746653 3.583998 4.721775 7.850662 8.874662 12.629326 12.515549l366.93313 390.200672 1.137777 1.137777a32.824871 32.824871 0 0 1-1.592888 45.511086 29.35465 29.35465 0 0 1-20.536878 7.566218h-31.85776a55.182192 55.182192 0 0 0-55.807969 54.499525v323.014932c0 30.833761-24.291542 55.921747-54.158192 55.921747h-178.631012v-299.007834a55.182192 55.182192 0 0 0-55.864857-54.442637H504.888608a55.182192 55.182192 0 0 0-55.807969 54.442637v299.007834H273.80607c-29.86665 0-54.158192-25.031097-54.158192-55.921747v-323.014932a55.182192 55.182192 0 0 0-55.864858-54.499525H142.791032a31.630205 31.630205 0 0 1-21.959099-9.784883 29.923539 29.923539 0 0 1-8.248884-22.129766 28.842651 28.842651 0 0 1 8.078217-21.162655l1.137777-1.137777 371.484239-394.808669a102.627499 102.627499 0 0 1 75.093291-32.597316V0v54.442636zM452.266415 50.062194L80.895955 445.041531c-15.758213 15.871991-24.348431 37.205313-24.007098 59.2213-0.398222 22.584876 8.419551 44.373309 24.575987 60.586633 16.099547 16.156435 38.229312 25.429319 61.439965 25.770652h20.650656v323.014932A110.364383 110.364383 0 0 0 273.635404 1023.999431H468.195295a37.091535 37.091535 0 0 0 26.39643-10.808883 35.100425 35.100425 0 0 0 10.296883-25.941319v-316.700268h113.208826v316.700268a36.067536 36.067536 0 0 0 35.38487 36.750202H852.536415a110.364383 110.364383 0 0 0 109.966161-110.364383v-323.014932h31.85776c22.755543 0.284444 44.600864-8.362662 60.643522-24.007097 33.905759-33.564426 34.588425-87.039952 1.592888-121.457711L685.112508 50.062194a12.401771 12.401771 0 0 1-6.257774-6.542218A161.450577 161.450577 0 0 0 568.604129 0h-0.170667A159.402578 159.402578 0 0 0 452.266415 50.062194z"  /></svg>